<svg xmlns="http://www.w3.org/2000/svg" xmlns:xlink="http://www.w3.org/1999/xlink" width="18.072" height="18.072" viewBox="0 0 18.072 18.072"><defs><style>.a{fill:none;}.b{clip-path:url(#a);}.c{fill:#fbbc05;}.d{fill:#ea4335;}.e{fill:#34a853;}.f{fill:#4285f4;}</style><clipPath id="a"><path class="a" d="M17.862,7.393H9.246v3.491h4.959c-.462,2.218-2.4,3.491-4.959,3.491A5.392,5.392,0,0,1,3.782,9.036,5.464,5.464,0,0,1,12.65,4.888l2.69-2.629A9.327,9.327,0,0,0,9.246,0,9.116,9.116,0,0,0,0,9.036a9.116,9.116,0,0,0,9.246,9.036,8.62,8.62,0,0,0,8.826-9.036A7.335,7.335,0,0,0,17.862,7.393Z"/></clipPath></defs><path class="a" d="M17.862,7.393H9.246v3.491h4.959c-.462,2.218-2.4,3.491-4.959,3.491A5.392,5.392,0,0,1,3.782,9.036,5.464,5.464,0,0,1,12.65,4.888l2.69-2.629A9.327,9.327,0,0,0,9.246,0,9.116,9.116,0,0,0,0,9.036a9.116,9.116,0,0,0,9.246,9.036,8.62,8.62,0,0,0,8.826-9.036A7.335,7.335,0,0,0,17.862,7.393Z"/><g class="b"><path class="c" d="M0,10.679V0L7.145,5.339Z" transform="translate(-0.841 3.696)"/></g><path class="a" d="M17.862,7.393H9.246v3.491h4.959c-.462,2.218-2.4,3.491-4.959,3.491A5.392,5.392,0,0,1,3.782,9.036,5.464,5.464,0,0,1,12.65,4.888l2.69-2.629A9.327,9.327,0,0,0,9.246,0,9.116,9.116,0,0,0,0,9.036a9.116,9.116,0,0,0,9.246,9.036,8.62,8.62,0,0,0,8.826-9.036A7.335,7.335,0,0,0,17.862,7.393Z"/><g class="b"><path class="d" d="M0,4.518,7.145,9.857l2.942-2.505,10.087-1.6V0H0Z" transform="translate(-0.841 -0.821)"/></g><path class="a" d="M17.862,7.393H9.246v3.491h4.959c-.462,2.218-2.4,3.491-4.959,3.491A5.392,5.392,0,0,1,3.782,9.036,5.464,5.464,0,0,1,12.65,4.888l2.69-2.629A9.327,9.327,0,0,0,9.246,0,9.116,9.116,0,0,0,0,9.036a9.116,9.116,0,0,0,9.246,9.036,8.62,8.62,0,0,0,8.826-9.036A7.335,7.335,0,0,0,17.862,7.393Z"/><g class="b"><path class="e" d="M0,15.2,12.608,5.75l3.32.411L20.173,0V19.715H0Z" transform="translate(-0.841 -0.821)"/></g><path class="a" d="M17.862,7.393H9.246v3.491h4.959c-.462,2.218-2.4,3.491-4.959,3.491A5.392,5.392,0,0,1,3.782,9.036,5.464,5.464,0,0,1,12.65,4.888l2.69-2.629A9.327,9.327,0,0,0,9.246,0,9.116,9.116,0,0,0,0,9.036a9.116,9.116,0,0,0,9.246,9.036,8.62,8.62,0,0,0,8.826-9.036A7.335,7.335,0,0,0,17.862,7.393Z"/><g class="b"><path class="f" d="M14.71,15.2,1.681,5.339,0,4.107,14.71,0Z" transform="translate(4.623 3.696)"/></g></svg>